<svg width="287" height="86" viewBox="0 0 287 86" fill="none" xmlns="http://www.w3.org/2000/svg">
<g clip-path="url(#clip0_1807_5531)">
<path d="M0.101562 84.6831H21.9663V56.0673H53.8957V41.2786H21.9663V28.336H57.0666V13.3789H0.101562V84.6831Z" fill="white"/>
<path d="M86.8697 33.0859H65.2969V84.6882H86.8697V33.0859Z" fill="white"/>
<path d="M86.8697 13.3789H65.2969V28.336H86.8697V13.3789Z" fill="white"/>
<path d="M120.713 13.3789H99.1406V84.69H120.713V13.3789Z" fill="white"/>
<path d="M187.712 33.0859H166.139V61.6244C166.139 69.268 164.111 71.8018 159.025 71.8018C154.158 71.8018 152.666 68.51 152.666 63.8213V33.0859H131.133V67.0149C131.133 79.2488 137.743 85.9727 150.19 85.9727C157.51 85.9727 162.487 84.1268 166.217 79.2417C166.289 80.6174 166.399 83.446 166.659 84.6882H187.822C187.712 79.7681 187.712 72.7774 187.712 68.2011V33.0859Z" fill="white"/>
<path d="M268.201 31.8359C258.562 31.8359 253.767 35.4506 250.413 38.9389C248.497 35.6401 244.301 31.8359 235.616 31.8359C227.279 31.8359 222.436 35.0505 219.289 38.588C219.179 36.7561 218.847 34.2644 218.626 33.0852H197.945C198.056 37.479 198.056 42.4694 198.056 47.2071V84.6876H219.328V55.005C219.328 48.3091 221.316 45.9016 226.088 45.9016C230.916 45.9016 232.012 49.0811 232.012 52.9555V84.6806H253.215V54.5488C253.215 48.6249 255.028 45.8385 259.863 45.8385C264.478 45.8385 265.898 48.9688 265.898 52.7801V84.6806H286.989V51.1166C286.997 37.8932 278.999 31.8359 268.201 31.8359Z" fill="white"/>
<path d="M270.196 0.0273438V5.49501H197.961V9.50977H270.196V14.9774H286.997V0.0273438H270.196Z" fill="#F58821"/>
</g>
<defs>
<clipPath id="clip0_1807_5531">
<rect width="287" height="86" fill="white"/>
</clipPath>
</defs>
</svg>
